<svg xmlns="http://www.w3.org/2000/svg" xmlns:xlink="http://www.w3.org/1999/xlink" width="50" height="50" viewBox="0 0 50 50">
  <defs>
    <clipPath id="clip-heatmap">
      <rect width="50" height="50"/>
    </clipPath>
  </defs>
  <g id="heatmap" clip-path="url(#clip-heatmap)">
    <g id="Group_8" data-name="Group 8" transform="translate(0 2)">
      <rect id="Rectangle_17" data-name="Rectangle 17" width="7" height="7" transform="translate(6 4)" fill="#f3646a"/>
      <rect id="Rectangle_24" data-name="Rectangle 24" width="7" height="7" transform="translate(13.75 4)" fill="#f3646a" opacity="0.1"/>
      <rect id="Rectangle_31" data-name="Rectangle 31" width="7" height="7" transform="translate(21.5 4)" fill="#f3646a" opacity="0.2"/>
      <rect id="Rectangle_38" data-name="Rectangle 38" width="7" height="7" transform="translate(29.25 4)" fill="#f3646a" opacity="0.5"/>
      <rect id="Rectangle_45" data-name="Rectangle 45" width="7" height="7" transform="translate(37 4)" fill="#f3646a"/>
      <rect id="Rectangle_18" data-name="Rectangle 18" width="7" height="7" transform="translate(6 11.75)" fill="#f3646a" opacity="0.4"/>
      <rect id="Rectangle_25" data-name="Rectangle 25" width="7" height="7" transform="translate(13.75 11.75)" fill="#f3646a"/>
      <rect id="Rectangle_32" data-name="Rectangle 32" width="7" height="7" transform="translate(21.5 11.75)" fill="#f3646a" opacity="0.8"/>
      <rect id="Rectangle_39" data-name="Rectangle 39" width="7" height="7" transform="translate(29.25 11.75)" fill="#f3646a" opacity="0.3"/>
      <rect id="Rectangle_46" data-name="Rectangle 46" width="7" height="7" transform="translate(37 11.75)" fill="#f3646a"/>
      <rect id="Rectangle_19" data-name="Rectangle 19" width="7" height="7" transform="translate(6 19.5)" fill="#f3646a"/>
      <rect id="Rectangle_26" data-name="Rectangle 26" width="7" height="7" transform="translate(13.75 19.5)" fill="#f3646a" opacity="0.5"/>
      <rect id="Rectangle_33" data-name="Rectangle 33" width="7" height="7" transform="translate(21.5 19.5)" fill="#f3646a" opacity="0.8"/>
      <rect id="Rectangle_40" data-name="Rectangle 40" width="7" height="7" transform="translate(29.25 19.5)" fill="#f3646a"/>
      <rect id="Rectangle_47" data-name="Rectangle 47" width="7" height="7" transform="translate(37 19.5)" fill="#f3646a"/>
      <rect id="Rectangle_20" data-name="Rectangle 20" width="7" height="7" transform="translate(6 27.25)" fill="#f3646a" opacity="0.8"/>
      <rect id="Rectangle_27" data-name="Rectangle 27" width="7" height="7" transform="translate(13.75 27.25)" fill="#f3646a" opacity="0.3"/>
      <rect id="Rectangle_34" data-name="Rectangle 34" width="7" height="7" transform="translate(21.5 27.25)" fill="#f3646a"/>
      <rect id="Rectangle_41" data-name="Rectangle 41" width="7" height="7" transform="translate(29.25 27.25)" fill="#f3646a" opacity="0.3"/>
      <rect id="Rectangle_48" data-name="Rectangle 48" width="7" height="7" transform="translate(37 27.25)" fill="#f3646a"/>
      <rect id="Rectangle_21" data-name="Rectangle 21" width="7" height="7" transform="translate(6 35)" fill="#f3646a" opacity="0.8"/>
      <path id="Path_24" data-name="Path 24" d="M0,0H7V7H0Z" transform="translate(13.75 35)" fill="#f3646a" opacity="0.45"/>
      <rect id="Rectangle_35" data-name="Rectangle 35" width="7" height="7" transform="translate(21.5 35)" fill="#f3646a"/>
      <rect id="Rectangle_42" data-name="Rectangle 42" width="7" height="7" transform="translate(29.25 35)" fill="#f3646a"/>
      <rect id="Rectangle_49" data-name="Rectangle 49" width="7" height="7" transform="translate(37 35)" fill="#f3646a" opacity="0.3"/>
    </g>
  </g>
</svg>
