<svg xmlns="http://www.w3.org/2000/svg" xmlns:xlink="http://www.w3.org/1999/xlink" width="50" height="50" viewBox="0 0 50 50">
  <defs>
    <clipPath id="clip-line_donut">
      <rect width="50" height="50"/>
    </clipPath>
  </defs>
  <g id="line_donut" clip-path="url(#clip-line_donut)">
    <g id="noun_Graph_1012401" transform="translate(-4.298 53.59)">
      <path id="Path_4" data-name="Path 4" d="M12.158,6.886V2.41a8.813,8.813,0,0,1,7.636,7.636H15.318a4.407,4.407,0,0,0-3.16-3.16Zm0,13a8.813,8.813,0,0,0,7.636-7.636H15.318a4.407,4.407,0,0,1-3.16,3.16Zm-2.2-13V2.41a8.813,8.813,0,0,0,0,17.474V15.409a4.407,4.407,0,0,1,0-8.523Z" transform="translate(13 -51)" fill="#ffe066"/>
    </g>
    <g id="Group_3" data-name="Group 3" transform="translate(5)">
      <path id="Path_6" data-name="Path 6" d="M35.782,42.7H11.052V27.966a1.086,1.086,0,1,0-2.172,0V43.782a1.086,1.086,0,0,0,1.086,1.086H35.782a1.086,1.086,0,1,0,0-2.172Z" transform="translate(-2.88 -0.88)" fill="#b4b4b4"/>
      <path id="Path_9" data-name="Path 9" d="M739.509,40.3s.328-14.084,3.608-13.373" transform="translate(-722)" fill="none" stroke="#ffe066" stroke-linecap="round" stroke-width="1"/>
      <path id="Path_10" data-name="Path 10" d="M739.509,35.237s.464-8.767,5.1-8.324" transform="translate(-722 5.058)" fill="none" stroke="#f3646a" stroke-linecap="round" stroke-width="1"/>
    </g>
    <g id="noun_Graph_1012401-2" data-name="noun_Graph_1012401" transform="translate(-4.298 53.59)">
      <path id="Path_4-2" data-name="Path 4" d="M12.158,19.886a8.813,8.813,0,0,0,7.636-7.636H15.318a4.407,4.407,0,0,1-3.16,3.16Zm-2.2-13V2.41a8.813,8.813,0,0,0,0,17.474V15.409a4.407,4.407,0,0,1,0-8.523Z" transform="translate(13 -51)" fill="#f3646a"/>
    </g>
  </g>
</svg>
